<?xml version="1.0" encoding="UTF-8" standalone="no"?> <svg id="Layer_1" data-name="Layer 1" xmlns="http://www.w3.org/2000/svg" viewBox="0 0 48 48"><defs><style>.cls-1{fill:#fac100;}.cls-2{fill:#ff9500;}</style></defs><title>Branding</title><path class="cls-1" d="M41.864,18.729A2.716,2.716,0,0,0,39.837,16.9l-8.89-1.925L26.5,7.331a2.89,2.89,0,0,0-4.994,0l-4.45,7.641L8.164,16.9A2.743,2.743,0,0,0,6.7,21.405l6.06,6.783-.917,9.048a2.734,2.734,0,0,0,3.835,2.785L24,36.354l8.323,3.667a2.742,2.742,0,0,0,3.835-2.785l-.917-9.048,6.06-6.783A2.718,2.718,0,0,0,41.864,18.729Z"/><path class="cls-2" d="M32,32A17.994,17.994,0,0,1,14.082,15.616L8.164,16.9A2.743,2.743,0,0,0,6.7,21.405l6.06,6.783-.917,9.048a2.734,2.734,0,0,0,3.835,2.785L24,36.354l8.323,3.667a2.742,2.742,0,0,0,3.835-2.785l-.567-5.6A18.08,18.08,0,0,1,32,32Z"/><path class="cls-1" d="M24,46a1,1,0,0,1-1-1V41a1,1,0,0,1,2,0v4A1,1,0,0,1,24,46Z"/><path class="cls-1" d="M4.028,31.489a1,1,0,0,1-.309-1.951l3.8-1.236a1,1,0,0,1,.618,1.9l-3.8,1.236A.982.982,0,0,1,4.028,31.489Z"/><path class="cls-1" d="M43.972,31.489a.982.982,0,0,1-.309-.049l-3.8-1.236a1,1,0,1,1,.618-1.9l3.8,1.236a1,1,0,0,1-.309,1.951Z"/><path class="cls-1" d="M33.991,11.247a1,1,0,0,1-.808-1.588l2.351-3.236A1,1,0,1,1,37.152,7.6L34.8,10.834A1,1,0,0,1,33.991,11.247Z"/><path class="cls-1" d="M14.009,11.247a1,1,0,0,1-.81-.413L10.848,7.6a1,1,0,1,1,1.618-1.176l2.351,3.236a1,1,0,0,1-.808,1.588Z"/></svg>