<?xml version="1.0" encoding="UTF-8" standalone="no"?> <svg id="Layer_1" data-name="Layer 1" xmlns="http://www.w3.org/2000/svg" viewBox="0 0 48 48"><defs><style>.cls-1{fill:#8fa5a5;}.cls-2{fill:#7b8c8c;}.cls-3{fill:#2d4a60;}.cls-4{fill:#263f52;}.cls-5{fill:#d9e1e2;}.cls-6{fill:#eaeff0;}</style></defs><title>Opinion</title><path class="cls-1" d="M36,30a7.008,7.008,0,0,0-7,7v4a2,2,0,0,0,2,2H41a2,2,0,0,0,2-2V37A7.008,7.008,0,0,0,36,30Z"/><path class="cls-2" d="M32,41V37a7.009,7.009,0,0,1,5.5-6.834A6.986,6.986,0,0,0,29,37v4a2,2,0,0,0,2,2h3A2,2,0,0,1,32,41Z"/><circle class="cls-1" cx="36" cy="26" r="5"/><path class="cls-2" d="M37.5,29a4.5,4.5,0,0,1-3.168-7.693,4.988,4.988,0,1,0,6.361,6.361A4.482,4.482,0,0,1,37.5,29Z"/><path class="cls-1" d="M12,30a7.008,7.008,0,0,0-7,7v4a2,2,0,0,0,2,2H17a2,2,0,0,0,2-2V37A7.008,7.008,0,0,0,12,30Z"/><path class="cls-2" d="M8,41V37a7.009,7.009,0,0,1,5.5-6.834A6.986,6.986,0,0,0,5,37v4a2,2,0,0,0,2,2h3A2,2,0,0,1,8,41Z"/><circle class="cls-1" cx="12" cy="26" r="5"/><path class="cls-2" d="M13.5,29a4.5,4.5,0,0,1-3.168-7.693,4.988,4.988,0,1,0,6.361,6.361A4.482,4.482,0,0,1,13.5,29Z"/><path class="cls-3" d="M24,30a8.009,8.009,0,0,0-8,8v3a3,3,0,0,0,3,3H29a3,3,0,0,0,3-3V38A8.009,8.009,0,0,0,24,30Z"/><path class="cls-4" d="M19,41V38a8.01,8.01,0,0,1,6.5-7.854A7.98,7.98,0,0,0,16,38v3a3,3,0,0,0,3,3h3A3,3,0,0,1,19,41Z"/><circle class="cls-3" cx="24" cy="25" r="6"/><path class="cls-4" d="M25.5,29a5.494,5.494,0,0,1-3.668-9.59,6,6,0,1,0,7.758,7.758A5.48,5.48,0,0,1,25.5,29Z"/><path class="cls-5" d="M17,6H7A3,3,0,0,0,4,9v6a3,3,0,0,0,3,3H9.586l1,1a2,2,0,0,0,2.828,0l1-1H17a3,3,0,0,0,3-3V9A3,3,0,0,0,17,6Z"/><path class="cls-5" d="M41,6H31a3,3,0,0,0-3,3v6a3,3,0,0,0,3,3h2.586l1,1a2,2,0,0,0,2.828,0l1-1H41a3,3,0,0,0,3-3V9A3,3,0,0,0,41,6Z"/><path class="cls-6" d="M30,4H18a3,3,0,0,0-3,3v6a3,3,0,0,0,3,3h3.586l1,1a2,2,0,0,0,2.828,0l1-1H30a3,3,0,0,0,3-3V7A3,3,0,0,0,30,4Z"/></svg>