<?xml version="1.0" encoding="UTF-8" standalone="no"?> <svg id="Layer_1" data-name="Layer 1" xmlns="http://www.w3.org/2000/svg" viewBox="0 0 48 48"><defs><style>.cls-1{fill:#eaeff0;}.cls-2{fill:#d9e1e2;}.cls-3{fill:#2d4a60;}.cls-4{fill:#263f52;}</style></defs><title>Info</title><circle class="cls-1" cx="24" cy="24" r="22"/><path class="cls-2" d="M30,38A19.979,19.979,0,0,1,16.431,3.337,22,22,0,1,0,44.663,31.569,19.922,19.922,0,0,1,30,38Z"/><circle class="cls-3" cx="23.75" cy="14.5" r="3.75"/><path class="cls-3" d="M29,37H19V36h0a3.618,3.618,0,0,0,2-3.236V25.236A3.618,3.618,0,0,0,19,22h0V21h8V32.866A3.454,3.454,0,0,0,29,36h0Z"/><path class="cls-4" d="M19.968,35.283A3.615,3.615,0,0,1,19,36v1h4.777A19.9,19.9,0,0,1,19.968,35.283Z"/></svg>