<?xml version="1.0" encoding="UTF-8" standalone="no"?> <svg id="Layer_1" data-name="Layer 1" xmlns="http://www.w3.org/2000/svg" viewBox="0 0 48 48"><defs><style>.cls-1{fill:#2d4a60;}.cls-2{fill:#8fa5a5;}.cls-3{fill:#263f52;}.cls-4{fill:#7b8c8c;}</style></defs><title>Call Center</title><path class="cls-1" d="M40,26a1,1,0,0,1-1-1V22A15,15,0,0,0,9,22v3a1,1,0,0,1-2,0V22a17,17,0,0,1,34,0v3A1,1,0,0,1,40,26Z"/><path class="cls-2" d="M33,42H28a1,1,0,0,1,0-2h5a3,3,0,0,0,3-3V36a1,1,0,0,1,2,0v1A5.006,5.006,0,0,1,33,42Z"/><path class="cls-1" d="M41,23H40a1,1,0,0,0-1,1V34a1,1,0,0,0,1,1h1a5.006,5.006,0,0,0,5-5V28A5.006,5.006,0,0,0,41,23Z"/><path class="cls-1" d="M8,23H7a5.006,5.006,0,0,0-5,5v2a5.006,5.006,0,0,0,5,5H8a1,1,0,0,0,1-1V24A1,1,0,0,0,8,23Z"/><path class="cls-3" d="M41,32H40a1,1,0,0,1-1-1v3a1,1,0,0,0,1,1h1a5.006,5.006,0,0,0,5-5V28a4.865,4.865,0,0,0-.051-.5A4.988,4.988,0,0,1,41,32Z"/><path class="cls-3" d="M8,32H7a4.988,4.988,0,0,1-4.949-4.5A4.865,4.865,0,0,0,2,28v2a5.006,5.006,0,0,0,5,5H8a1,1,0,0,0,1-1V31A1,1,0,0,1,8,32Z"/><rect class="cls-2" x="7" y="21" width="8" height="16" rx="3"/><rect class="cls-2" x="33" y="21" width="8" height="16" rx="3"/><path class="cls-4" d="M12,34H10a3,3,0,0,1-3-3v3a3,3,0,0,0,3,3h2a3,3,0,0,0,3-3V31A3,3,0,0,1,12,34Z"/><path class="cls-4" d="M38,34H36a3,3,0,0,1-3-3v3a3,3,0,0,0,3,3h2a3,3,0,0,0,3-3V31A3,3,0,0,1,38,34Z"/><path class="cls-1" d="M26,37H22a4,4,0,0,0,0,8h4a4,4,0,0,0,0-8Z"/><path class="cls-3" d="M26,43H22a4,4,0,0,1-3.858-3A3.939,3.939,0,0,0,18,41a4,4,0,0,0,4,4h4a4,4,0,0,0,4-4,3.939,3.939,0,0,0-.142-1A4,4,0,0,1,26,43Z"/></svg>